<svg xmlns="http://www.w3.org/2000/svg" width="880" height="422" viewBox="0 0 880 422" role="img" aria-label="Peak memory for the same runs — lower is lighter">
<text x="16" y="22" font-family="ui-sans-serif, system-ui, -apple-system, Segoe UI, Roboto, sans-serif" font-size="15" font-weight="600" fill="#e9e9e4">Peak memory for the same runs — lower is lighter</text>
<rect x="16" y="34" width="10" height="10" rx="2.5" fill="#3987e5"/>
<text x="31" y="43" font-family="ui-sans-serif, system-ui, -apple-system, Segoe UI, Roboto, sans-serif" font-size="11.5" fill="#c3c2b7">zinq</text>
<rect x="71.6" y="34" width="10" height="10" rx="2.5" fill="#d95926"/>
<text x="86.6" y="43" font-family="ui-sans-serif, system-ui, -apple-system, Segoe UI, Roboto, sans-serif" font-size="11.5" fill="#c3c2b7">jq 1.8.2</text>
<line x1="804.0" y1="82" x2="804.0" y2="407" stroke="#2a2d2d" stroke-width="1"/>
<line x1="717.3" y1="82" x2="717.3" y2="407" stroke="#2a2d2d" stroke-width="1"/>
<line x1="630.7" y1="82" x2="630.7" y2="407" stroke="#2a2d2d" stroke-width="1"/>
<line x1="544.0" y1="82" x2="544.0" y2="407" stroke="#2a2d2d" stroke-width="1"/>
<line x1="457.3" y1="82" x2="457.3" y2="407" stroke="#2a2d2d" stroke-width="1"/>
<line x1="370.7" y1="82" x2="370.7" y2="407" stroke="#2a2d2d" stroke-width="1"/>
<text x="16" y="62" font-family="ui-sans-serif, system-ui, -apple-system, Segoe UI, Roboto, sans-serif" font-size="11" letter-spacing="1.1" fill="#8d8e86">PEAK RESIDENT SET AT EXIT  ·  MB</text>
<text x="284.0" y="76" text-anchor="middle" font-family="ui-monospace, SFMono-Regular, Menlo, Consolas, monospace" font-size="10" fill="#8d8e86">0</text>
<text x="370.7" y="76" text-anchor="middle" font-family="ui-monospace, SFMono-Regular, Menlo, Consolas, monospace" font-size="10" fill="#8d8e86">50</text>
<text x="457.3" y="76" text-anchor="middle" font-family="ui-monospace, SFMono-Regular, Menlo, Consolas, monospace" font-size="10" fill="#8d8e86">100</text>
<text x="544.0" y="76" text-anchor="middle" font-family="ui-monospace, SFMono-Regular, Menlo, Consolas, monospace" font-size="10" fill="#8d8e86">150</text>
<text x="630.7" y="76" text-anchor="middle" font-family="ui-monospace, SFMono-Regular, Menlo, Consolas, monospace" font-size="10" fill="#8d8e86">200</text>
<text x="717.3" y="76" text-anchor="middle" font-family="ui-monospace, SFMono-Regular, Menlo, Consolas, monospace" font-size="10" fill="#8d8e86">250</text>
<text x="804.0" y="76" text-anchor="middle" font-family="ui-monospace, SFMono-Regular, Menlo, Consolas, monospace" font-size="10" fill="#8d8e86">300</text>
<line x1="284" y1="82" x2="804" y2="82" stroke="#3a3d3d" stroke-width="1"/>
<rect x="284" y="92" width="44.0" height="11" rx="3" fill="#3987e5"/>
<text x="335.0" y="101.5" text-anchor="start" font-family="ui-monospace, SFMono-Regular, Menlo, Consolas, monospace" font-size="10" fill="#c3c2b7">25.4 MB</text>
<rect x="284" y="106" width="382.2" height="11" rx="3" fill="#d95926"/>
<text x="673.2" y="115.5" text-anchor="start" font-family="ui-monospace, SFMono-Regular, Menlo, Consolas, monospace" font-size="10" fill="#c3c2b7">220 MB</text>
<text x="16" y="105.0" font-family="ui-monospace, SFMono-Regular, Menlo, Consolas, monospace" font-size="11" fill="#e9e9e4">.[0]</text>
<rect x="284" y="128" width="114.1" height="11" rx="3" fill="#3987e5"/>
<text x="405.1" y="137.5" text-anchor="start" font-family="ui-monospace, SFMono-Regular, Menlo, Consolas, monospace" font-size="10" fill="#c3c2b7">65.8 MB</text>
<rect x="284" y="142" width="401.6" height="11" rx="3" fill="#d95926"/>
<text x="692.6" y="151.5" text-anchor="start" font-family="ui-monospace, SFMono-Regular, Menlo, Consolas, monospace" font-size="10" fill="#c3c2b7">232 MB</text>
<text x="16" y="141.0" font-family="ui-monospace, SFMono-Regular, Menlo, Consolas, monospace" font-size="11" fill="#e9e9e4">[.[] | .tags | length]</text>
<rect x="284" y="164" width="111.3" height="11" rx="3" fill="#3987e5"/>
<text x="402.3" y="173.5" text-anchor="start" font-family="ui-monospace, SFMono-Regular, Menlo, Consolas, monospace" font-size="10" fill="#c3c2b7">64.2 MB</text>
<rect x="284" y="178" width="382.9" height="11" rx="3" fill="#d95926"/>
<text x="673.9" y="187.5" text-anchor="start" font-family="ui-monospace, SFMono-Regular, Menlo, Consolas, monospace" font-size="10" fill="#c3c2b7">221 MB</text>
<text x="16" y="177.0" font-family="ui-monospace, SFMono-Regular, Menlo, Consolas, monospace" font-size="11" fill="#e9e9e4">test("^item-0000[0-9]3$")</text>
<rect x="284" y="200" width="171.9" height="11" rx="3" fill="#3987e5"/>
<text x="462.9" y="209.5" text-anchor="start" font-family="ui-monospace, SFMono-Regular, Menlo, Consolas, monospace" font-size="10" fill="#c3c2b7">99.2 MB</text>
<rect x="284" y="214" width="434.9" height="11" rx="3" fill="#d95926"/>
<text x="711.9" y="223.5" text-anchor="end" font-family="ui-monospace, SFMono-Regular, Menlo, Consolas, monospace" font-size="10" fill="#ffffff">251 MB</text>
<text x="16" y="213.0" font-family="ui-monospace, SFMono-Regular, Menlo, Consolas, monospace" font-size="11" fill="#e9e9e4">gsub("[0-9]"; "#")</text>
<rect x="284" y="236" width="176.8" height="11" rx="3" fill="#3987e5"/>
<text x="467.8" y="245.5" text-anchor="start" font-family="ui-monospace, SFMono-Regular, Menlo, Consolas, monospace" font-size="10" fill="#c3c2b7">102 MB</text>
<rect x="284" y="250" width="397.8" height="11" rx="3" fill="#d95926"/>
<text x="688.8" y="259.5" text-anchor="start" font-family="ui-monospace, SFMono-Regular, Menlo, Consolas, monospace" font-size="10" fill="#c3c2b7">230 MB</text>
<text x="16" y="249.0" font-family="ui-monospace, SFMono-Regular, Menlo, Consolas, monospace" font-size="11" fill="#e9e9e4">[.[] | .name]</text>
<rect x="284" y="272" width="200.4" height="11" rx="3" fill="#3987e5"/>
<text x="491.4" y="281.5" text-anchor="start" font-family="ui-monospace, SFMono-Regular, Menlo, Consolas, monospace" font-size="10" fill="#c3c2b7">116 MB</text>
<rect x="284" y="286" width="406.8" height="11" rx="3" fill="#d95926"/>
<text x="697.8" y="295.5" text-anchor="start" font-family="ui-monospace, SFMono-Regular, Menlo, Consolas, monospace" font-size="10" fill="#c3c2b7">235 MB</text>
<text x="16" y="285.0" font-family="ui-monospace, SFMono-Regular, Menlo, Consolas, monospace" font-size="11" fill="#e9e9e4">. (pretty-print)</text>
<rect x="284" y="308" width="216.8" height="11" rx="3" fill="#3987e5"/>
<text x="507.8" y="317.5" text-anchor="start" font-family="ui-monospace, SFMono-Regular, Menlo, Consolas, monospace" font-size="10" fill="#c3c2b7">125 MB</text>
<rect x="284" y="322" width="404.7" height="11" rx="3" fill="#d95926"/>
<text x="695.7" y="331.5" text-anchor="start" font-family="ui-monospace, SFMono-Regular, Menlo, Consolas, monospace" font-size="10" fill="#c3c2b7">234 MB</text>
<text x="16" y="321.0" font-family="ui-monospace, SFMono-Regular, Menlo, Consolas, monospace" font-size="11" fill="#e9e9e4">[.[] | .score] | sort | .[-1]</text>
<rect x="284" y="344" width="271.1" height="11" rx="3" fill="#3987e5"/>
<text x="562.1" y="353.5" text-anchor="start" font-family="ui-monospace, SFMono-Regular, Menlo, Consolas, monospace" font-size="10" fill="#c3c2b7">156 MB</text>
<rect x="284" y="358" width="449.5" height="11" rx="3" fill="#d95926"/>
<text x="726.5" y="367.5" text-anchor="end" font-family="ui-monospace, SFMono-Regular, Menlo, Consolas, monospace" font-size="10" fill="#ffffff">259 MB</text>
<text x="16" y="357.0" font-family="ui-monospace, SFMono-Regular, Menlo, Consolas, monospace" font-size="11" fill="#e9e9e4">[.[] | .tags[]] | unique</text>
<rect x="284" y="380" width="344.6" height="11" rx="3" fill="#3987e5"/>
<text x="635.6" y="389.5" text-anchor="start" font-family="ui-monospace, SFMono-Regular, Menlo, Consolas, monospace" font-size="10" fill="#c3c2b7">199 MB</text>
<rect x="284" y="394" width="490.4" height="11" rx="3" fill="#d95926"/>
<text x="767.4" y="403.5" text-anchor="end" font-family="ui-monospace, SFMono-Regular, Menlo, Consolas, monospace" font-size="10" fill="#ffffff">283 MB</text>
<text x="16" y="393.0" font-family="ui-monospace, SFMono-Regular, Menlo, Consolas, monospace" font-size="11" fill="#e9e9e4">[.[] | select(.active)]</text>
</svg>
