<svg xmlns="http://www.w3.org/2000/svg" width="880" height="1191" viewBox="0 0 880 1191" role="img" aria-label="Peak resident memory for the same 27 runs, zinq against jq 1.8.2. zinq is ahead on 20 of 27 for memory held."><title>Peak resident memory for the same 27 runs, zinq against jq 1.8.2. zinq is ahead on 20 of 27 for memory held.</title><text x="20" y="20" font-family="ui-sans-serif, system-ui, -apple-system, Segoe UI, Roboto, sans-serif" font-size="10.5" font-weight="600" letter-spacing="1.8" fill="#8d8e86">MEMORY</text><text x="20" y="44" font-family="ui-sans-serif, system-ui, -apple-system, Segoe UI, Roboto, sans-serif" font-size="15.5" font-weight="600" fill="#e9e9e4">Peak resident size for the same runs — shorter columns hold less</text><text x="20" y="64" font-family="ui-sans-serif, system-ui, -apple-system, Segoe UI, Roboto, sans-serif" font-size="11.5" fill="#c3c2b7">Peak RSS over the same 27 runs on an Apple M3 Max. Each group carries its own axis.</text><rect x="20" y="78" width="10" height="10" rx="2.5" fill="#3987e5"/><text x="35" y="87" font-family="ui-sans-serif, system-ui, -apple-system, Segoe UI, Roboto, sans-serif" font-size="11.5" fill="#c3c2b7">zinq</text><rect x="82.6" y="78" width="10" height="10" rx="2.5" fill="#d95926"/><text x="97.6" y="87" font-family="ui-sans-serif, system-ui, -apple-system, Segoe UI, Roboto, sans-serif" font-size="11.5" fill="#c3c2b7">jq 1.8.2</text><line x1="20" y1="102" x2="860" y2="102" stroke="#26292a" stroke-width="1"/><rect x="12.0" y="118" width="650.0" height="510.7" rx="9" fill="#17191a"/><text x="20" y="140" font-family="ui-sans-serif, system-ui, -apple-system, Segoe UI, Roboto, sans-serif" font-size="10.5" font-weight="600" letter-spacing="1" fill="#8d8e86">QUERIES, PROJECTIONS AND REGEX</text><text x="20" y="168" font-family="ui-sans-serif, system-ui, -apple-system, Segoe UI, Roboto, sans-serif" font-size="9.5" letter-spacing="1" fill="#8d8e86">MB</text><text x="54" y="423.2" font-family="ui-monospace, SFMono-Regular, Menlo, Consolas, monospace" font-size="9.5" text-anchor="end" fill="#8d8e86">0</text><line x1="62.0" y1="350.7" x2="654.0" y2="350.7" stroke="#2a2d2d" stroke-width="1"/><text x="54" y="353.936" font-family="ui-monospace, SFMono-Regular, Menlo, Consolas, monospace" font-size="9.5" text-anchor="end" fill="#8d8e86">100</text><line x1="62.0" y1="281.5" x2="654.0" y2="281.5" stroke="#2a2d2d" stroke-width="1"/><text x="54" y="284.672" font-family="ui-monospace, SFMono-Regular, Menlo, Consolas, monospace" font-size="9.5" text-anchor="end" fill="#8d8e86">200</text><line x1="62.0" y1="212.2" x2="654.0" y2="212.2" stroke="#2a2d2d" stroke-width="1"/><text x="54" y="215.408" font-family="ui-monospace, SFMono-Regular, Menlo, Consolas, monospace" font-size="9.5" text-anchor="end" fill="#8d8e86">300</text><line x1="62.0" y1="420.0" x2="654.0" y2="420.0" stroke="#3f4344" stroke-width="1"/><path d="M75.9 420.0L75.9 406.4Q75.9 402.4 79.9 402.4L89.9 402.4Q93.9 402.4 93.9 406.4L93.9 420.0Z" fill="#3987e5"/><path d="M95.9 420.0L95.9 271.6Q95.9 267.6 99.9 267.6L109.9 267.6Q113.9 267.6 113.9 271.6L113.9 420.0Z" fill="#d95926"/><path d="M141.7 420.0L141.7 378.4Q141.7 374.4 145.7 374.4L155.7 374.4Q159.7 374.4 159.7 378.4L159.7 420.0Z" fill="#3987e5"/><path d="M161.7 420.0L161.7 263.3Q161.7 259.3 165.7 259.3L175.7 259.3Q179.7 259.3 179.7 263.3L179.7 420.0Z" fill="#d95926"/><path d="M207.4 420.0L207.4 353.4Q207.4 349.4 211.4 349.4L221.4 349.4Q225.4 349.4 225.4 353.4L225.4 420.0Z" fill="#3987e5"/><path d="M227.4 420.0L227.4 264.7Q227.4 260.7 231.4 260.7L241.4 260.7Q245.4 260.7 245.4 264.7L245.4 420.0Z" fill="#d95926"/><path d="M273.2 420.0L273.2 337.4Q273.2 333.4 277.2 333.4L287.2 333.4Q291.2 333.4 291.2 337.4L291.2 420.0Z" fill="#3987e5"/><path d="M293.2 420.0L293.2 261.9Q293.2 257.9 297.2 257.9L307.2 257.9Q311.2 257.9 311.2 261.9L311.2 420.0Z" fill="#d95926"/><path d="M339.0 420.0L339.0 343.7Q339.0 339.7 343.0 339.7L353.0 339.7Q357.0 339.7 357.0 343.7L357.0 420.0Z" fill="#3987e5"/><path d="M359.0 420.0L359.0 261.2Q359.0 257.2 363.0 257.2L373.0 257.2Q377.0 257.2 377.0 261.2L377.0 420.0Z" fill="#d95926"/><path d="M404.8 420.0L404.8 379.5Q404.8 375.5 408.8 375.5L418.8 375.5Q422.8 375.5 422.8 379.5L422.8 420.0Z" fill="#3987e5"/><path d="M424.8 420.0L424.8 270.2Q424.8 266.2 428.8 266.2L438.8 266.2Q442.8 266.2 442.8 270.2L442.8 420.0Z" fill="#d95926"/><path d="M470.6 420.0L470.6 286.2Q470.6 282.2 474.6 282.2L484.6 282.2Q488.6 282.2 488.6 286.2L488.6 420.0Z" fill="#3987e5"/><path d="M490.6 420.0L490.6 228.0Q490.6 224.0 494.6 224.0L504.6 224.0Q508.6 224.0 508.6 228.0L508.6 420.0Z" fill="#d95926"/><path d="M536.3 420.0L536.3 315.9Q536.3 311.9 540.3 311.9L550.3 311.9Q554.3 311.9 554.3 315.9L554.3 420.0Z" fill="#3987e5"/><path d="M556.3 420.0L556.3 244.6Q556.3 240.6 560.3 240.6L570.3 240.6Q574.3 240.6 574.3 244.6L574.3 420.0Z" fill="#d95926"/><path d="M602.1 420.0L602.1 379.5Q602.1 375.5 606.1 375.5L616.1 375.5Q620.1 375.5 620.1 379.5L620.1 420.0Z" fill="#3987e5"/><path d="M622.1 420.0L622.1 270.9Q622.1 266.9 626.1 266.9L636.1 266.9Q640.1 266.9 640.1 270.9L640.1 420.0Z" fill="#d95926"/><text x="98.6889" y="432" font-family="ui-monospace, SFMono-Regular, Menlo, Consolas, monospace" font-size="10.5" text-anchor="end" transform="rotate(-90 98.7 432.0)" fill="#c3c2b7">.[0]</text><text x="164.467" y="432" font-family="ui-monospace, SFMono-Regular, Menlo, Consolas, monospace" font-size="10.5" text-anchor="end" transform="rotate(-90 164.5 432.0)" fill="#c3c2b7">[.[] | .tags | length]</text><text x="230.244" y="432" font-family="ui-monospace, SFMono-Regular, Menlo, Consolas, monospace" font-size="10.5" text-anchor="end" transform="rotate(-90 230.2 432.0)" fill="#c3c2b7">[.[] | .name]</text><text x="296.022" y="432" font-family="ui-monospace, SFMono-Regular, Menlo, Consolas, monospace" font-size="10.5" text-anchor="end" transform="rotate(-90 296.0 432.0)" fill="#c3c2b7">[.[] | .score] | sort | .[-1]</text><text x="361.8" y="432" font-family="ui-monospace, SFMono-Regular, Menlo, Consolas, monospace" font-size="10.5" text-anchor="end" transform="rotate(-90 361.8 432.0)" fill="#c3c2b7">. (pretty-print)</text><text x="427.578" y="432" font-family="ui-monospace, SFMono-Regular, Menlo, Consolas, monospace" font-size="10.5" text-anchor="end" transform="rotate(-90 427.6 432.0)" fill="#c3c2b7">test(&quot;item-(?=0000)&quot;)</text><text x="493.356" y="432" font-family="ui-monospace, SFMono-Regular, Menlo, Consolas, monospace" font-size="10.5" text-anchor="end" transform="rotate(-90 493.4 432.0)" fill="#c3c2b7">[.[] | select(.active)]</text><text x="559.133" y="432" font-family="ui-monospace, SFMono-Regular, Menlo, Consolas, monospace" font-size="10.5" text-anchor="end" transform="rotate(-90 559.1 432.0)" fill="#c3c2b7">[.[] | .tags[]] | unique</text><text x="624.911" y="432" font-family="ui-monospace, SFMono-Regular, Menlo, Consolas, monospace" font-size="10.5" text-anchor="end" transform="rotate(-90 624.9 432.0)" fill="#c3c2b7">test(&quot;^item-0000[0-9]3$&quot;)</text><rect x="674.0" y="118" width="194.0" height="510.7" rx="9" fill="#17191a"/><text x="682" y="140" font-family="ui-sans-serif, system-ui, -apple-system, Segoe UI, Roboto, sans-serif" font-size="10.5" font-weight="600" letter-spacing="1" fill="#8d8e86">REWRITING EVERY RECORD</text><text x="682" y="168" font-family="ui-sans-serif, system-ui, -apple-system, Segoe UI, Roboto, sans-serif" font-size="9.5" letter-spacing="1" fill="#8d8e86">MB</text><text x="716" y="423.2" font-family="ui-monospace, SFMono-Regular, Menlo, Consolas, monospace" font-size="9.5" text-anchor="end" fill="#8d8e86">0</text><line x1="724.0" y1="350.7" x2="860.0" y2="350.7" stroke="#2a2d2d" stroke-width="1"/><text x="716" y="353.936" font-family="ui-monospace, SFMono-Regular, Menlo, Consolas, monospace" font-size="9.5" text-anchor="end" fill="#8d8e86">100</text><line x1="724.0" y1="281.5" x2="860.0" y2="281.5" stroke="#2a2d2d" stroke-width="1"/><text x="716" y="284.672" font-family="ui-monospace, SFMono-Regular, Menlo, Consolas, monospace" font-size="9.5" text-anchor="end" fill="#8d8e86">200</text><line x1="724.0" y1="212.2" x2="860.0" y2="212.2" stroke="#2a2d2d" stroke-width="1"/><text x="716" y="215.408" font-family="ui-monospace, SFMono-Regular, Menlo, Consolas, monospace" font-size="9.5" text-anchor="end" fill="#8d8e86">300</text><line x1="724.0" y1="420.0" x2="860.0" y2="420.0" stroke="#3f4344" stroke-width="1"/><path d="M773.0 420.0L773.0 355.3Q773.0 351.3 777.0 351.3L787.0 351.3Q791.0 351.3 791.0 355.3L791.0 420.0Z" fill="#3987e5"/><path d="M793.0 420.0L793.0 250.1Q793.0 246.1 797.0 246.1L807.0 246.1Q811.0 246.1 811.0 250.1L811.0 420.0Z" fill="#d95926"/><text x="791" y="344.29" font-family="ui-monospace, SFMono-Regular, Menlo, Consolas, monospace" font-size="9.5" text-anchor="end" fill="#c3c2b7">99.2 MB</text><text x="793" y="239.147" font-family="ui-monospace, SFMono-Regular, Menlo, Consolas, monospace" font-size="9.5" text-anchor="start" fill="#c3c2b7">251 MB</text><text x="795.8" y="432" font-family="ui-monospace, SFMono-Regular, Menlo, Consolas, monospace" font-size="10.5" text-anchor="end" transform="rotate(-90 795.8 432.0)" fill="#c3c2b7">gsub(&quot;[0-9]&quot;; &quot;#&quot;)</text><rect x="12.0" y="652.7" width="292.7" height="504.4" rx="9" fill="#17191a"/><text x="20" y="674.7" font-family="ui-sans-serif, system-ui, -apple-system, Segoe UI, Roboto, sans-serif" font-size="10.5" font-weight="600" letter-spacing="1" fill="#8d8e86">REORDERING THE WHOLE DOCUMENT</text><text x="20" y="702.7" font-family="ui-sans-serif, system-ui, -apple-system, Segoe UI, Roboto, sans-serif" font-size="9.5" letter-spacing="1" fill="#8d8e86">MB</text><text x="54" y="957.9" font-family="ui-monospace, SFMono-Regular, Menlo, Consolas, monospace" font-size="9.5" text-anchor="end" fill="#8d8e86">0</text><line x1="62.0" y1="885.4" x2="296.7" y2="885.4" stroke="#2a2d2d" stroke-width="1"/><text x="54" y="888.636" font-family="ui-monospace, SFMono-Regular, Menlo, Consolas, monospace" font-size="9.5" text-anchor="end" fill="#8d8e86">100</text><line x1="62.0" y1="816.2" x2="296.7" y2="816.2" stroke="#2a2d2d" stroke-width="1"/><text x="54" y="819.372" font-family="ui-monospace, SFMono-Regular, Menlo, Consolas, monospace" font-size="9.5" text-anchor="end" fill="#8d8e86">200</text><line x1="62.0" y1="746.9" x2="296.7" y2="746.9" stroke="#2a2d2d" stroke-width="1"/><text x="54" y="750.108" font-family="ui-monospace, SFMono-Regular, Menlo, Consolas, monospace" font-size="9.5" text-anchor="end" fill="#8d8e86">300</text><line x1="62.0" y1="954.7" x2="296.7" y2="954.7" stroke="#3f4344" stroke-width="1"/><path d="M64.9 954.7L64.9 871.4Q64.9 867.4 68.9 867.4L76.6 867.4Q80.6 867.4 80.6 871.4L80.6 954.7Z" fill="#3987e5"/><path d="M82.6 954.7L82.6 793.9Q82.6 789.9 86.6 789.9L94.2 789.9Q98.2 789.9 98.2 793.9L98.2 954.7Z" fill="#d95926"/><path d="M104.0 954.7L104.0 863.1Q104.0 859.1 108.0 859.1L115.7 859.1Q119.7 859.1 119.7 863.1L119.7 954.7Z" fill="#3987e5"/><path d="M121.7 954.7L121.7 793.9Q121.7 789.9 125.7 789.9L133.3 789.9Q137.3 789.9 137.3 793.9L137.3 954.7Z" fill="#d95926"/><path d="M143.1 954.7L143.1 848.6Q143.1 844.6 147.1 844.6L154.8 844.6Q158.8 844.6 158.8 848.6L158.8 954.7Z" fill="#3987e5"/><path d="M160.8 954.7L160.8 780.0Q160.8 776.0 164.8 776.0L172.4 776.0Q176.4 776.0 176.4 780.0L176.4 954.7Z" fill="#d95926"/><path d="M182.3 954.7L182.3 848.6Q182.3 844.6 186.3 844.6L193.9 844.6Q197.9 844.6 197.9 848.6L197.9 954.7Z" fill="#3987e5"/><path d="M199.9 954.7L199.9 781.4Q199.9 777.4 203.9 777.4L211.6 777.4Q215.6 777.4 215.6 781.4L215.6 954.7Z" fill="#d95926"/><path d="M221.4 954.7L221.4 799.4Q221.4 795.4 225.4 795.4L233.0 795.4Q237.0 795.4 237.0 799.4L237.0 954.7Z" fill="#3987e5"/><path d="M239.0 954.7L239.0 740.5Q239.0 736.5 243.0 736.5L250.7 736.5Q254.7 736.5 254.7 740.5L254.7 954.7Z" fill="#d95926"/><path d="M260.5 954.7L260.5 832.6Q260.5 828.6 264.5 828.6L272.1 828.6Q276.1 828.6 276.1 832.6L276.1 954.7Z" fill="#3987e5"/><path d="M278.1 954.7L278.1 780.7Q278.1 776.7 282.1 776.7L289.8 776.7Q293.8 776.7 293.8 780.7L293.8 954.7Z" fill="#d95926"/><text x="85.3588" y="966.7" font-family="ui-monospace, SFMono-Regular, Menlo, Consolas, monospace" font-size="10.5" text-anchor="end" transform="rotate(-90 85.4 966.7)" fill="#c3c2b7">max_by(.score) | .id</text><text x="124.476" y="966.7" font-family="ui-monospace, SFMono-Regular, Menlo, Consolas, monospace" font-size="10.5" text-anchor="end" transform="rotate(-90 124.5 966.7)" fill="#c3c2b7">min_by(.score) | .id</text><text x="163.594" y="966.7" font-family="ui-monospace, SFMono-Regular, Menlo, Consolas, monospace" font-size="10.5" text-anchor="end" transform="rotate(-90 163.6 966.7)" fill="#c3c2b7">sort_by(.name) | last</text><text x="202.712" y="966.7" font-family="ui-monospace, SFMono-Regular, Menlo, Consolas, monospace" font-size="10.5" text-anchor="end" transform="rotate(-90 202.7 966.7)" fill="#c3c2b7">unique_by(.name) | length</text><text x="241.829" y="966.7" font-family="ui-monospace, SFMono-Regular, Menlo, Consolas, monospace" font-size="10.5" text-anchor="end" transform="rotate(-90 241.8 966.7)" fill="#c3c2b7">group_by(.name) | length</text><text x="280.947" y="966.7" font-family="ui-monospace, SFMono-Regular, Menlo, Consolas, monospace" font-size="10.5" text-anchor="end" transform="rotate(-90 280.9 966.7)" fill="#c3c2b7">sort_by(.id) | last</text><rect x="316.7" y="652.7" width="246.6" height="504.4" rx="9" fill="#17191a"/><text x="324.706" y="674.7" font-family="ui-sans-serif, system-ui, -apple-system, Segoe UI, Roboto, sans-serif" font-size="10.5" font-weight="600" letter-spacing="1" fill="#8d8e86">COLLECTING EVERY PATH AT ONCE</text><text x="324.706" y="702.7" font-family="ui-sans-serif, system-ui, -apple-system, Segoe UI, Roboto, sans-serif" font-size="9.5" letter-spacing="1" fill="#8d8e86">MB</text><text x="358.706" y="957.9" font-family="ui-monospace, SFMono-Regular, Menlo, Consolas, monospace" font-size="9.5" text-anchor="end" fill="#8d8e86">0</text><line x1="366.7" y1="880.0" x2="555.3" y2="880.0" stroke="#2a2d2d" stroke-width="1"/><text x="358.706" y="883.18" font-family="ui-monospace, SFMono-Regular, Menlo, Consolas, monospace" font-size="9.5" text-anchor="end" fill="#8d8e86">50</text><line x1="366.7" y1="805.3" x2="555.3" y2="805.3" stroke="#2a2d2d" stroke-width="1"/><text x="358.706" y="808.46" font-family="ui-monospace, SFMono-Regular, Menlo, Consolas, monospace" font-size="9.5" text-anchor="end" fill="#8d8e86">100</text><line x1="366.7" y1="730.5" x2="555.3" y2="730.5" stroke="#2a2d2d" stroke-width="1"/><text x="358.706" y="733.741" font-family="ui-monospace, SFMono-Regular, Menlo, Consolas, monospace" font-size="9.5" text-anchor="end" fill="#8d8e86">150</text><line x1="366.7" y1="954.7" x2="555.3" y2="954.7" stroke="#3f4344" stroke-width="1"/><path d="M369.5 954.7L369.5 853.0Q369.5 849.0 373.5 849.0L380.6 849.0Q384.6 849.0 384.6 853.0L384.6 954.7Z" fill="#3987e5"/><path d="M386.6 954.7L386.6 884.0Q386.6 880.0 390.6 880.0L397.7 880.0Q401.7 880.0 401.7 884.0L401.7 954.7Z" fill="#d95926"/><path d="M407.2 954.7L407.2 941.2Q407.2 937.2 411.2 937.2L418.3 937.2Q422.3 937.2 422.3 941.2L422.3 954.7Z" fill="#3987e5"/><path d="M424.3 954.7L424.3 921.5Q424.3 917.5 428.3 917.5L435.4 917.5Q439.4 917.5 439.4 921.5L439.4 954.7Z" fill="#d95926"/><path d="M444.9 954.7L444.9 851.0Q444.9 847.0 448.9 847.0L456.0 847.0Q460.0 847.0 460.0 851.0L460.0 954.7Z" fill="#3987e5"/><path d="M462.0 954.7L462.0 883.5Q462.0 879.5 466.0 879.5L473.1 879.5Q477.1 879.5 477.1 883.5L477.1 954.7Z" fill="#d95926"/><path d="M482.6 954.7L482.6 740.5Q482.6 736.5 486.6 736.5L493.7 736.5Q497.7 736.5 497.7 740.5L497.7 954.7Z" fill="#3987e5"/><path d="M499.7 954.7L499.7 864.0Q499.7 860.0 503.7 860.0L510.8 860.0Q514.8 860.0 514.8 864.0L514.8 954.7Z" fill="#d95926"/><path d="M520.3 954.7L520.3 852.7Q520.3 848.7 524.3 848.7L531.4 848.7Q535.4 848.7 535.4 852.7L535.4 954.7Z" fill="#3987e5"/><path d="M537.4 954.7L537.4 909.7Q537.4 905.7 541.4 905.7L548.5 905.7Q552.5 905.7 552.5 909.7L552.5 954.7Z" fill="#d95926"/><text x="389.365" y="966.7" font-family="ui-monospace, SFMono-Regular, Menlo, Consolas, monospace" font-size="10.5" text-anchor="end" transform="rotate(-90 389.4 966.7)" fill="#c3c2b7">[paths] | length¹</text><text x="427.082" y="966.7" font-family="ui-monospace, SFMono-Regular, Menlo, Consolas, monospace" font-size="10.5" text-anchor="end" transform="rotate(-90 427.1 966.7)" fill="#c3c2b7">reduce (inputs|paths) as $p¹</text><text x="464.8" y="966.7" font-family="ui-monospace, SFMono-Regular, Menlo, Consolas, monospace" font-size="10.5" text-anchor="end" transform="rotate(-90 464.8 966.7)" fill="#c3c2b7">[path(..)] | length¹</text><text x="502.518" y="966.7" font-family="ui-monospace, SFMono-Regular, Menlo, Consolas, monospace" font-size="10.5" text-anchor="end" transform="rotate(-90 502.5 966.7)" fill="#c3c2b7">[tostream] | length¹</text><text x="540.235" y="966.7" font-family="ui-monospace, SFMono-Regular, Menlo, Consolas, monospace" font-size="10.5" text-anchor="end" transform="rotate(-90 540.2 966.7)" fill="#c3c2b7">[paths(type==&quot;number&quot;)]¹</text><rect x="575.3" y="652.7" width="292.7" height="504.4" rx="9" fill="#17191a"/><text x="583.294" y="674.7" font-family="ui-sans-serif, system-ui, -apple-system, Segoe UI, Roboto, sans-serif" font-size="10.5" font-weight="600" letter-spacing="1" fill="#8d8e86">STREAMING, WITHOUT BUILDING THE</text><text x="583.294" y="687.7" font-family="ui-sans-serif, system-ui, -apple-system, Segoe UI, Roboto, sans-serif" font-size="10.5" font-weight="600" letter-spacing="1" fill="#8d8e86">DOCUMENT</text><text x="583.294" y="702.7" font-family="ui-sans-serif, system-ui, -apple-system, Segoe UI, Roboto, sans-serif" font-size="9.5" letter-spacing="1" fill="#8d8e86">MB</text><text x="617.294" y="957.9" font-family="ui-monospace, SFMono-Regular, Menlo, Consolas, monospace" font-size="9.5" text-anchor="end" fill="#8d8e86">0</text><line x1="625.3" y1="895.6" x2="860.0" y2="895.6" stroke="#2a2d2d" stroke-width="1"/><text x="617.294" y="898.772" font-family="ui-monospace, SFMono-Regular, Menlo, Consolas, monospace" font-size="9.5" text-anchor="end" fill="#8d8e86">10</text><line x1="625.3" y1="836.4" x2="860.0" y2="836.4" stroke="#2a2d2d" stroke-width="1"/><text x="617.294" y="839.644" font-family="ui-monospace, SFMono-Regular, Menlo, Consolas, monospace" font-size="9.5" text-anchor="end" fill="#8d8e86">20</text><line x1="625.3" y1="777.3" x2="860.0" y2="777.3" stroke="#2a2d2d" stroke-width="1"/><text x="617.294" y="780.516" font-family="ui-monospace, SFMono-Regular, Menlo, Consolas, monospace" font-size="9.5" text-anchor="end" fill="#8d8e86">30</text><line x1="625.3" y1="718.2" x2="860.0" y2="718.2" stroke="#2a2d2d" stroke-width="1"/><text x="617.294" y="721.389" font-family="ui-monospace, SFMono-Regular, Menlo, Consolas, monospace" font-size="9.5" text-anchor="end" fill="#8d8e86">40</text><line x1="625.3" y1="954.7" x2="860.0" y2="954.7" stroke="#3f4344" stroke-width="1"/><path d="M628.2 954.7L628.2 948.1Q628.2 944.1 632.2 944.1L639.9 944.1Q643.9 944.1 643.9 948.1L643.9 954.7Z" fill="#3987e5"/><path d="M645.9 954.7L645.9 944.5Q645.9 940.5 649.9 940.5L657.5 940.5Q661.5 940.5 661.5 944.5L661.5 954.7Z" fill="#d95926"/><path d="M667.3 954.7L667.3 889.5Q667.3 885.5 671.3 885.5L679.0 885.5Q683.0 885.5 683.0 889.5L683.0 954.7Z" fill="#3987e5"/><path d="M685.0 954.7L685.0 812.7Q685.0 808.7 689.0 808.7L696.6 808.7Q700.6 808.7 700.6 812.7L700.6 954.7Z" fill="#d95926"/><path d="M706.4 954.7L706.4 883.6Q706.4 879.6 710.4 879.6L718.1 879.6Q722.1 879.6 722.1 883.6L722.1 954.7Z" fill="#3987e5"/><path d="M724.1 954.7L724.1 804.4Q724.1 800.4 728.1 800.4L735.7 800.4Q739.7 800.4 739.7 804.4L739.7 954.7Z" fill="#d95926"/><path d="M745.6 954.7L745.6 740.5Q745.6 736.5 749.6 736.5L757.2 736.5Q761.2 736.5 761.2 740.5L761.2 954.7Z" fill="#3987e5"/><path d="M763.2 954.7L763.2 802.0Q763.2 798.0 767.2 798.0L774.9 798.0Q778.9 798.0 778.9 802.0L778.9 954.7Z" fill="#d95926"/><path d="M784.7 954.7L784.7 840.4Q784.7 836.4 788.7 836.4L796.3 836.4Q800.3 836.4 800.3 840.4L800.3 954.7Z" fill="#3987e5"/><path d="M802.3 954.7L802.3 934.5Q802.3 930.5 806.3 930.5L814.0 930.5Q818.0 930.5 818.0 934.5L818.0 954.7Z" fill="#d95926"/><path d="M823.8 954.7L823.8 839.3Q823.8 835.3 827.8 835.3L835.4 835.3Q839.4 835.3 839.4 839.3L839.4 954.7Z" fill="#3987e5"/><path d="M841.4 954.7L841.4 933.9Q841.4 929.9 845.4 929.9L853.1 929.9Q857.1 929.9 857.1 933.9L857.1 954.7Z" fill="#d95926"/><text x="648.653" y="966.7" font-family="ui-monospace, SFMono-Regular, Menlo, Consolas, monospace" font-size="10.5" text-anchor="end" transform="rotate(-90 648.7 966.7)" fill="#c3c2b7">--stream -n first(inputs)</text><text x="687.771" y="966.7" font-family="ui-monospace, SFMono-Regular, Menlo, Consolas, monospace" font-size="10.5" text-anchor="end" transform="rotate(-90 687.8 966.7)" fill="#c3c2b7">paths¹</text><text x="726.888" y="966.7" font-family="ui-monospace, SFMono-Regular, Menlo, Consolas, monospace" font-size="10.5" text-anchor="end" transform="rotate(-90 726.9 966.7)" fill="#c3c2b7">tostream¹</text><text x="766.006" y="966.7" font-family="ui-monospace, SFMono-Regular, Menlo, Consolas, monospace" font-size="10.5" text-anchor="end" transform="rotate(-90 766.0 966.7)" fill="#c3c2b7">fromstream(inputs)¹</text><text x="805.124" y="966.7" font-family="ui-monospace, SFMono-Regular, Menlo, Consolas, monospace" font-size="10.5" text-anchor="end" transform="rotate(-90 805.1 966.7)" fill="#c3c2b7">--stream .</text><text x="844.241" y="966.7" font-family="ui-monospace, SFMono-Regular, Menlo, Consolas, monospace" font-size="10.5" text-anchor="end" transform="rotate(-90 844.2 966.7)" fill="#c3c2b7">--stream select(length==2)</text><text x="20" y="1177.1" font-family="ui-sans-serif, system-ui, -apple-system, Segoe UI, Roboto, sans-serif" font-size="10.5" fill="#8d8e86">¹ measured on a 1.8 MB / 20k-record corpus; everything else on 18 MB / 200k records.</text></svg>
