<svg xmlns="http://www.w3.org/2000/svg" width="880" height="1191" viewBox="0 0 880 1191" role="img" aria-label="Time to run 27 workloads, zinq against jq 1.8.2, over 18 MB / 200k records. zinq is ahead on all 27."><title>Time to run 27 workloads, zinq against jq 1.8.2, over 18 MB / 200k records. zinq is ahead on all 27.</title><text x="20" y="20" font-family="ui-sans-serif, system-ui, -apple-system, Segoe UI, Roboto, sans-serif" font-size="10.5" font-weight="600" letter-spacing="1.8" fill="#7c7d78">SPEED</text><text x="20" y="44" font-family="ui-sans-serif, system-ui, -apple-system, Segoe UI, Roboto, sans-serif" font-size="15.5" font-weight="600" fill="#0b0b0b">Time to run each benchmark — shorter columns are faster</text><text x="20" y="64" font-family="ui-sans-serif, system-ui, -apple-system, Segoe UI, Roboto, sans-serif" font-size="11.5" fill="#52514e">27 workloads over 18 MB / 200k records, best of 5 interleaved rounds on an Apple M3 Max. Each group carries its own axis.</text><rect x="20" y="78" width="10" height="10" rx="2.5" fill="#2a78d6"/><text x="35" y="87" font-family="ui-sans-serif, system-ui, -apple-system, Segoe UI, Roboto, sans-serif" font-size="11.5" fill="#52514e">zinq</text><rect x="82.6" y="78" width="10" height="10" rx="2.5" fill="#eb6834"/><text x="97.6" y="87" font-family="ui-sans-serif, system-ui, -apple-system, Segoe UI, Roboto, sans-serif" font-size="11.5" fill="#52514e">jq 1.8.2</text><line x1="20" y1="102" x2="860" y2="102" stroke="#e3e3df" stroke-width="1"/><rect x="12.0" y="118" width="650.0" height="510.7" rx="9" fill="#f6f6f4"/><text x="20" y="140" font-family="ui-sans-serif, system-ui, -apple-system, Segoe UI, Roboto, sans-serif" font-size="10.5" font-weight="600" letter-spacing="1" fill="#7c7d78">QUERIES, PROJECTIONS AND REGEX</text><text x="20" y="168" font-family="ui-sans-serif, system-ui, -apple-system, Segoe UI, Roboto, sans-serif" font-size="9.5" letter-spacing="1" fill="#7c7d78">SECONDS</text><text x="54" y="423.2" font-family="ui-monospace, SFMono-Regular, Menlo, Consolas, monospace" font-size="9.5" text-anchor="end" fill="#7c7d78">0</text><line x1="62.0" y1="370.9" x2="654.0" y2="370.9" stroke="#e6eaeb" stroke-width="1"/><text x="54" y="374.06" font-family="ui-monospace, SFMono-Regular, Menlo, Consolas, monospace" font-size="9.5" text-anchor="end" fill="#7c7d78">0.2</text><line x1="62.0" y1="321.7" x2="654.0" y2="321.7" stroke="#e6eaeb" stroke-width="1"/><text x="54" y="324.92" font-family="ui-monospace, SFMono-Regular, Menlo, Consolas, monospace" font-size="9.5" text-anchor="end" fill="#7c7d78">0.4</text><line x1="62.0" y1="272.6" x2="654.0" y2="272.6" stroke="#e6eaeb" stroke-width="1"/><text x="54" y="275.78" font-family="ui-monospace, SFMono-Regular, Menlo, Consolas, monospace" font-size="9.5" text-anchor="end" fill="#7c7d78">0.6</text><line x1="62.0" y1="223.4" x2="654.0" y2="223.4" stroke="#e6eaeb" stroke-width="1"/><text x="54" y="226.64" font-family="ui-monospace, SFMono-Regular, Menlo, Consolas, monospace" font-size="9.5" text-anchor="end" fill="#7c7d78">0.8</text><line x1="62.0" y1="420.0" x2="654.0" y2="420.0" stroke="#c8d0d3" stroke-width="1"/><path d="M75.9 420.0L75.9 417.6Q75.9 413.6 79.9 413.6L89.9 413.6Q93.9 413.6 93.9 417.6L93.9 420.0Z" fill="#2a78d6"/><path d="M95.9 420.0L95.9 358.6Q95.9 354.6 99.9 354.6L109.9 354.6Q113.9 354.6 113.9 358.6L113.9 420.0Z" fill="#eb6834"/><path d="M141.7 420.0L141.7 414.2Q141.7 410.2 145.7 410.2L155.7 410.2Q159.7 410.2 159.7 414.2L159.7 420.0Z" fill="#2a78d6"/><path d="M161.7 420.0L161.7 352.0Q161.7 348.0 165.7 348.0L175.7 348.0Q179.7 348.0 179.7 352.0L179.7 420.0Z" fill="#eb6834"/><path d="M207.4 420.0L207.4 411.2Q207.4 407.2 211.4 407.2L221.4 407.2Q225.4 407.2 225.4 411.2L225.4 420.0Z" fill="#2a78d6"/><path d="M227.4 420.0L227.4 334.3Q227.4 330.3 231.4 330.3L241.4 330.3Q245.4 330.3 245.4 334.3L245.4 420.0Z" fill="#eb6834"/><path d="M273.2 420.0L273.2 404.1Q273.2 400.1 277.2 400.1L287.2 400.1Q291.2 400.1 291.2 404.1L291.2 420.0Z" fill="#2a78d6"/><path d="M293.2 420.0L293.2 314.9Q293.2 310.9 297.2 310.9L307.2 310.9Q311.2 310.9 311.2 314.9L311.2 420.0Z" fill="#eb6834"/><path d="M339.0 420.0L339.0 404.3Q339.0 400.3 343.0 400.3L353.0 400.3Q357.0 400.3 357.0 404.3L357.0 420.0Z" fill="#2a78d6"/><path d="M359.0 420.0L359.0 205.8Q359.0 201.8 363.0 201.8L373.0 201.8Q377.0 201.8 377.0 205.8L377.0 420.0Z" fill="#eb6834"/><path d="M404.8 420.0L404.8 396.2Q404.8 392.2 408.8 392.2L418.8 392.2Q422.8 392.2 422.8 396.2L422.8 420.0Z" fill="#2a78d6"/><path d="M424.8 420.0L424.8 282.2Q424.8 278.2 428.8 278.2L438.8 278.2Q442.8 278.2 442.8 282.2L442.8 420.0Z" fill="#eb6834"/><path d="M470.6 420.0L470.6 388.6Q470.6 384.6 474.6 384.6L484.6 384.6Q488.6 384.6 488.6 388.6L488.6 420.0Z" fill="#2a78d6"/><path d="M490.6 420.0L490.6 300.4Q490.6 296.4 494.6 296.4L504.6 296.4Q508.6 296.4 508.6 300.4L508.6 420.0Z" fill="#eb6834"/><path d="M536.3 420.0L536.3 388.6Q536.3 384.6 540.3 384.6L550.3 384.6Q554.3 384.6 554.3 388.6L554.3 420.0Z" fill="#2a78d6"/><path d="M556.3 420.0L556.3 229.4Q556.3 225.4 560.3 225.4L570.3 225.4Q574.3 225.4 574.3 229.4L574.3 420.0Z" fill="#eb6834"/><path d="M602.1 420.0L602.1 379.3Q602.1 375.3 606.1 375.3L616.1 375.3Q620.1 375.3 620.1 379.3L620.1 420.0Z" fill="#2a78d6"/><path d="M622.1 420.0L622.1 264.0Q622.1 260.0 626.1 260.0L636.1 260.0Q640.1 260.0 640.1 264.0L640.1 420.0Z" fill="#eb6834"/><text x="98.6889" y="432" font-family="ui-monospace, SFMono-Regular, Menlo, Consolas, monospace" font-size="10.5" text-anchor="end" transform="rotate(-90 98.7 432.0)" fill="#52514e">.[0]</text><text x="164.467" y="432" font-family="ui-monospace, SFMono-Regular, Menlo, Consolas, monospace" font-size="10.5" text-anchor="end" transform="rotate(-90 164.5 432.0)" fill="#52514e">[.[] | .tags | length]</text><text x="230.244" y="432" font-family="ui-monospace, SFMono-Regular, Menlo, Consolas, monospace" font-size="10.5" text-anchor="end" transform="rotate(-90 230.2 432.0)" fill="#52514e">[.[] | .name]</text><text x="296.022" y="432" font-family="ui-monospace, SFMono-Regular, Menlo, Consolas, monospace" font-size="10.5" text-anchor="end" transform="rotate(-90 296.0 432.0)" fill="#52514e">[.[] | .score] | sort | .[-1]</text><text x="361.8" y="432" font-family="ui-monospace, SFMono-Regular, Menlo, Consolas, monospace" font-size="10.5" text-anchor="end" transform="rotate(-90 361.8 432.0)" fill="#52514e">. (pretty-print)</text><text x="427.578" y="432" font-family="ui-monospace, SFMono-Regular, Menlo, Consolas, monospace" font-size="10.5" text-anchor="end" transform="rotate(-90 427.6 432.0)" fill="#52514e">test(&quot;item-(?=0000)&quot;)</text><text x="493.356" y="432" font-family="ui-monospace, SFMono-Regular, Menlo, Consolas, monospace" font-size="10.5" text-anchor="end" transform="rotate(-90 493.4 432.0)" fill="#52514e">[.[] | select(.active)]</text><text x="559.133" y="432" font-family="ui-monospace, SFMono-Regular, Menlo, Consolas, monospace" font-size="10.5" text-anchor="end" transform="rotate(-90 559.1 432.0)" fill="#52514e">[.[] | .tags[]] | unique</text><text x="624.911" y="432" font-family="ui-monospace, SFMono-Regular, Menlo, Consolas, monospace" font-size="10.5" text-anchor="end" transform="rotate(-90 624.9 432.0)" fill="#52514e">test(&quot;^item-0000[0-9]3$&quot;)</text><rect x="674.0" y="118" width="194.0" height="510.7" rx="9" fill="#f6f6f4"/><text x="682" y="140" font-family="ui-sans-serif, system-ui, -apple-system, Segoe UI, Roboto, sans-serif" font-size="10.5" font-weight="600" letter-spacing="1" fill="#7c7d78">REWRITING EVERY RECORD</text><text x="682" y="168" font-family="ui-sans-serif, system-ui, -apple-system, Segoe UI, Roboto, sans-serif" font-size="9.5" letter-spacing="1" fill="#7c7d78">SECONDS</text><text x="716" y="423.2" font-family="ui-monospace, SFMono-Regular, Menlo, Consolas, monospace" font-size="9.5" text-anchor="end" fill="#7c7d78">0</text><line x1="724.0" y1="370.2" x2="860.0" y2="370.2" stroke="#e6eaeb" stroke-width="1"/><text x="716" y="373.404" font-family="ui-monospace, SFMono-Regular, Menlo, Consolas, monospace" font-size="9.5" text-anchor="end" fill="#7c7d78">2</text><line x1="724.0" y1="320.4" x2="860.0" y2="320.4" stroke="#e6eaeb" stroke-width="1"/><text x="716" y="323.608" font-family="ui-monospace, SFMono-Regular, Menlo, Consolas, monospace" font-size="9.5" text-anchor="end" fill="#7c7d78">4</text><line x1="724.0" y1="270.6" x2="860.0" y2="270.6" stroke="#e6eaeb" stroke-width="1"/><text x="716" y="273.812" font-family="ui-monospace, SFMono-Regular, Menlo, Consolas, monospace" font-size="9.5" text-anchor="end" fill="#7c7d78">6</text><line x1="724.0" y1="220.8" x2="860.0" y2="220.8" stroke="#e6eaeb" stroke-width="1"/><text x="716" y="224.015" font-family="ui-monospace, SFMono-Regular, Menlo, Consolas, monospace" font-size="9.5" text-anchor="end" fill="#7c7d78">8</text><line x1="724.0" y1="420.0" x2="860.0" y2="420.0" stroke="#c8d0d3" stroke-width="1"/><path d="M773.0 420.0L773.0 413.8Q773.0 409.8 777.0 409.8L787.0 409.8Q791.0 409.8 791.0 413.8L791.0 420.0Z" fill="#2a78d6"/><path d="M793.0 420.0L793.0 205.8Q793.0 201.8 797.0 201.8L807.0 201.8Q811.0 201.8 811.0 205.8L811.0 420.0Z" fill="#eb6834"/><text x="791" y="402.767" font-family="ui-monospace, SFMono-Regular, Menlo, Consolas, monospace" font-size="9.5" text-anchor="end" fill="#52514e">0.411 s</text><text x="793" y="194.818" font-family="ui-monospace, SFMono-Regular, Menlo, Consolas, monospace" font-size="9.5" text-anchor="start" fill="#52514e">8.763 s</text><text x="795.8" y="432" font-family="ui-monospace, SFMono-Regular, Menlo, Consolas, monospace" font-size="10.5" text-anchor="end" transform="rotate(-90 795.8 432.0)" fill="#52514e">gsub(&quot;[0-9]&quot;; &quot;#&quot;)</text><rect x="12.0" y="652.7" width="292.7" height="504.4" rx="9" fill="#f6f6f4"/><text x="20" y="674.7" font-family="ui-sans-serif, system-ui, -apple-system, Segoe UI, Roboto, sans-serif" font-size="10.5" font-weight="600" letter-spacing="1" fill="#7c7d78">REORDERING THE WHOLE DOCUMENT</text><text x="20" y="702.7" font-family="ui-sans-serif, system-ui, -apple-system, Segoe UI, Roboto, sans-serif" font-size="9.5" letter-spacing="1" fill="#7c7d78">MILLISECONDS</text><text x="54" y="957.9" font-family="ui-monospace, SFMono-Regular, Menlo, Consolas, monospace" font-size="9.5" text-anchor="end" fill="#7c7d78">0</text><line x1="62.0" y1="899.2" x2="296.7" y2="899.2" stroke="#e6eaeb" stroke-width="1"/><text x="54" y="902.383" font-family="ui-monospace, SFMono-Regular, Menlo, Consolas, monospace" font-size="9.5" text-anchor="end" fill="#7c7d78">100</text><line x1="62.0" y1="843.7" x2="296.7" y2="843.7" stroke="#e6eaeb" stroke-width="1"/><text x="54" y="846.866" font-family="ui-monospace, SFMono-Regular, Menlo, Consolas, monospace" font-size="9.5" text-anchor="end" fill="#7c7d78">200</text><line x1="62.0" y1="788.1" x2="296.7" y2="788.1" stroke="#e6eaeb" stroke-width="1"/><text x="54" y="791.349" font-family="ui-monospace, SFMono-Regular, Menlo, Consolas, monospace" font-size="9.5" text-anchor="end" fill="#7c7d78">300</text><line x1="62.0" y1="732.6" x2="296.7" y2="732.6" stroke="#e6eaeb" stroke-width="1"/><text x="54" y="735.832" font-family="ui-monospace, SFMono-Regular, Menlo, Consolas, monospace" font-size="9.5" text-anchor="end" fill="#7c7d78">400</text><line x1="62.0" y1="954.7" x2="296.7" y2="954.7" stroke="#c8d0d3" stroke-width="1"/><path d="M64.9 954.7L64.9 927.6Q64.9 923.6 68.9 923.6L76.6 923.6Q80.6 923.6 80.6 927.6L80.6 954.7Z" fill="#2a78d6"/><path d="M82.6 954.7L82.6 769.4Q82.6 765.4 86.6 765.4L94.2 765.4Q98.2 765.4 98.2 769.4L98.2 954.7Z" fill="#eb6834"/><path d="M104.0 954.7L104.0 927.6Q104.0 923.6 108.0 923.6L115.7 923.6Q119.7 923.6 119.7 927.6L119.7 954.7Z" fill="#2a78d6"/><path d="M121.7 954.7L121.7 772.7Q121.7 768.7 125.7 768.7L133.3 768.7Q137.3 768.7 137.3 772.7L137.3 954.7Z" fill="#eb6834"/><path d="M143.1 954.7L143.1 915.4Q143.1 911.4 147.1 911.4L154.8 911.4Q158.8 911.4 158.8 915.4L158.8 954.7Z" fill="#2a78d6"/><path d="M160.8 954.7L160.8 751.6Q160.8 747.6 164.8 747.6L172.4 747.6Q176.4 747.6 176.4 751.6L176.4 954.7Z" fill="#eb6834"/><path d="M182.3 954.7L182.3 914.3Q182.3 910.3 186.3 910.3L193.9 910.3Q197.9 910.3 197.9 914.3L197.9 954.7Z" fill="#2a78d6"/><path d="M199.9 954.7L199.9 749.4Q199.9 745.4 203.9 745.4L211.6 745.4Q215.6 745.4 215.6 749.4L215.6 954.7Z" fill="#eb6834"/><path d="M221.4 954.7L221.4 903.2Q221.4 899.2 225.4 899.2L233.0 899.2Q237.0 899.2 237.0 903.2L237.0 954.7Z" fill="#2a78d6"/><path d="M239.0 954.7L239.0 740.5Q239.0 736.5 243.0 736.5L250.7 736.5Q254.7 736.5 254.7 740.5L254.7 954.7Z" fill="#eb6834"/><path d="M260.5 954.7L260.5 879.9Q260.5 875.9 264.5 875.9L272.1 875.9Q276.1 875.9 276.1 879.9L276.1 954.7Z" fill="#2a78d6"/><path d="M278.1 954.7L278.1 756.6Q278.1 752.6 282.1 752.6L289.8 752.6Q293.8 752.6 293.8 756.6L293.8 954.7Z" fill="#eb6834"/><text x="85.3588" y="966.7" font-family="ui-monospace, SFMono-Regular, Menlo, Consolas, monospace" font-size="10.5" text-anchor="end" transform="rotate(-90 85.4 966.7)" fill="#52514e">max_by(.score) | .id</text><text x="124.476" y="966.7" font-family="ui-monospace, SFMono-Regular, Menlo, Consolas, monospace" font-size="10.5" text-anchor="end" transform="rotate(-90 124.5 966.7)" fill="#52514e">min_by(.score) | .id</text><text x="163.594" y="966.7" font-family="ui-monospace, SFMono-Regular, Menlo, Consolas, monospace" font-size="10.5" text-anchor="end" transform="rotate(-90 163.6 966.7)" fill="#52514e">sort_by(.name) | last</text><text x="202.712" y="966.7" font-family="ui-monospace, SFMono-Regular, Menlo, Consolas, monospace" font-size="10.5" text-anchor="end" transform="rotate(-90 202.7 966.7)" fill="#52514e">unique_by(.name) | length</text><text x="241.829" y="966.7" font-family="ui-monospace, SFMono-Regular, Menlo, Consolas, monospace" font-size="10.5" text-anchor="end" transform="rotate(-90 241.8 966.7)" fill="#52514e">group_by(.name) | length</text><text x="280.947" y="966.7" font-family="ui-monospace, SFMono-Regular, Menlo, Consolas, monospace" font-size="10.5" text-anchor="end" transform="rotate(-90 280.9 966.7)" fill="#52514e">sort_by(.id) | last</text><rect x="316.7" y="652.7" width="246.6" height="504.4" rx="9" fill="#f6f6f4"/><text x="324.706" y="674.7" font-family="ui-sans-serif, system-ui, -apple-system, Segoe UI, Roboto, sans-serif" font-size="10.5" font-weight="600" letter-spacing="1" fill="#7c7d78">COLLECTING EVERY PATH AT ONCE</text><text x="324.706" y="702.7" font-family="ui-sans-serif, system-ui, -apple-system, Segoe UI, Roboto, sans-serif" font-size="9.5" letter-spacing="1" fill="#7c7d78">MILLISECONDS</text><text x="358.706" y="957.9" font-family="ui-monospace, SFMono-Regular, Menlo, Consolas, monospace" font-size="9.5" text-anchor="end" fill="#7c7d78">0</text><line x1="366.7" y1="880.2" x2="555.3" y2="880.2" stroke="#e6eaeb" stroke-width="1"/><text x="358.706" y="883.435" font-family="ui-monospace, SFMono-Regular, Menlo, Consolas, monospace" font-size="9.5" text-anchor="end" fill="#7c7d78">100</text><line x1="366.7" y1="805.8" x2="555.3" y2="805.8" stroke="#e6eaeb" stroke-width="1"/><text x="358.706" y="808.97" font-family="ui-monospace, SFMono-Regular, Menlo, Consolas, monospace" font-size="9.5" text-anchor="end" fill="#7c7d78">200</text><line x1="366.7" y1="731.3" x2="555.3" y2="731.3" stroke="#e6eaeb" stroke-width="1"/><text x="358.706" y="734.506" font-family="ui-monospace, SFMono-Regular, Menlo, Consolas, monospace" font-size="9.5" text-anchor="end" fill="#7c7d78">300</text><line x1="366.7" y1="954.7" x2="555.3" y2="954.7" stroke="#c8d0d3" stroke-width="1"/><path d="M369.5 954.7L369.5 937.8Q369.5 933.8 373.5 933.8L380.6 933.8Q384.6 933.8 384.6 937.8L384.6 954.7Z" fill="#2a78d6"/><path d="M386.6 954.7L386.6 869.3Q386.6 865.3 390.6 865.3L397.7 865.3Q401.7 865.3 401.7 869.3L401.7 954.7Z" fill="#eb6834"/><path d="M407.2 954.7L407.2 935.6Q407.2 931.6 411.2 931.6L418.3 931.6Q422.3 931.6 422.3 935.6L422.3 954.7Z" fill="#2a78d6"/><path d="M424.3 954.7L424.3 861.9Q424.3 857.9 428.3 857.9L435.4 857.9Q439.4 857.9 439.4 861.9L439.4 954.7Z" fill="#eb6834"/><path d="M444.9 954.7L444.9 934.1Q444.9 930.1 448.9 930.1L456.0 930.1Q460.0 930.1 460.0 934.1L460.0 954.7Z" fill="#2a78d6"/><path d="M462.0 954.7L462.0 891.7Q462.0 887.7 466.0 887.7L473.1 887.7Q477.1 887.7 477.1 891.7L477.1 954.7Z" fill="#eb6834"/><path d="M482.6 954.7L482.6 918.5Q482.6 914.5 486.6 914.5L493.7 914.5Q497.7 914.5 497.7 918.5L497.7 954.7Z" fill="#2a78d6"/><path d="M499.7 954.7L499.7 740.5Q499.7 736.5 503.7 736.5L510.8 736.5Q514.8 736.5 514.8 740.5L514.8 954.7Z" fill="#eb6834"/><path d="M520.3 954.7L520.3 914.0Q520.3 910.0 524.3 910.0L531.4 910.0Q535.4 910.0 535.4 914.0L535.4 954.7Z" fill="#2a78d6"/><path d="M537.4 954.7L537.4 868.6Q537.4 864.6 541.4 864.6L548.5 864.6Q552.5 864.6 552.5 868.6L552.5 954.7Z" fill="#eb6834"/><text x="389.365" y="966.7" font-family="ui-monospace, SFMono-Regular, Menlo, Consolas, monospace" font-size="10.5" text-anchor="end" transform="rotate(-90 389.4 966.7)" fill="#52514e">[paths] | length¹</text><text x="427.082" y="966.7" font-family="ui-monospace, SFMono-Regular, Menlo, Consolas, monospace" font-size="10.5" text-anchor="end" transform="rotate(-90 427.1 966.7)" fill="#52514e">reduce (inputs|paths) as $p¹</text><text x="464.8" y="966.7" font-family="ui-monospace, SFMono-Regular, Menlo, Consolas, monospace" font-size="10.5" text-anchor="end" transform="rotate(-90 464.8 966.7)" fill="#52514e">[path(..)] | length¹</text><text x="502.518" y="966.7" font-family="ui-monospace, SFMono-Regular, Menlo, Consolas, monospace" font-size="10.5" text-anchor="end" transform="rotate(-90 502.5 966.7)" fill="#52514e">[tostream] | length¹</text><text x="540.235" y="966.7" font-family="ui-monospace, SFMono-Regular, Menlo, Consolas, monospace" font-size="10.5" text-anchor="end" transform="rotate(-90 540.2 966.7)" fill="#52514e">[paths(type==&quot;number&quot;)]¹</text><rect x="575.3" y="652.7" width="292.7" height="504.4" rx="9" fill="#f6f6f4"/><text x="583.294" y="674.7" font-family="ui-sans-serif, system-ui, -apple-system, Segoe UI, Roboto, sans-serif" font-size="10.5" font-weight="600" letter-spacing="1" fill="#7c7d78">STREAMING, WITHOUT BUILDING THE</text><text x="583.294" y="687.7" font-family="ui-sans-serif, system-ui, -apple-system, Segoe UI, Roboto, sans-serif" font-size="10.5" font-weight="600" letter-spacing="1" fill="#7c7d78">DOCUMENT</text><text x="583.294" y="702.7" font-family="ui-sans-serif, system-ui, -apple-system, Segoe UI, Roboto, sans-serif" font-size="9.5" letter-spacing="1" fill="#7c7d78">SECONDS</text><text x="617.294" y="957.9" font-family="ui-monospace, SFMono-Regular, Menlo, Consolas, monospace" font-size="9.5" text-anchor="end" fill="#7c7d78">0</text><line x1="625.3" y1="893.4" x2="860.0" y2="893.4" stroke="#e6eaeb" stroke-width="1"/><text x="617.294" y="896.647" font-family="ui-monospace, SFMono-Regular, Menlo, Consolas, monospace" font-size="9.5" text-anchor="end" fill="#7c7d78">0.5</text><line x1="625.3" y1="832.2" x2="860.0" y2="832.2" stroke="#e6eaeb" stroke-width="1"/><text x="617.294" y="835.395" font-family="ui-monospace, SFMono-Regular, Menlo, Consolas, monospace" font-size="9.5" text-anchor="end" fill="#7c7d78">1</text><line x1="625.3" y1="770.9" x2="860.0" y2="770.9" stroke="#e6eaeb" stroke-width="1"/><text x="617.294" y="774.142" font-family="ui-monospace, SFMono-Regular, Menlo, Consolas, monospace" font-size="9.5" text-anchor="end" fill="#7c7d78">1.5</text><line x1="625.3" y1="954.7" x2="860.0" y2="954.7" stroke="#c8d0d3" stroke-width="1"/><path d="M628.2 954.7L628.2 954.7Q628.2 952.7 630.2 952.7L641.9 952.7Q643.9 952.7 643.9 954.7L643.9 954.7Z" fill="#2a78d6"/><path d="M645.9 954.7L645.9 954.7Q645.9 952.7 647.9 952.7L659.5 952.7Q661.5 952.7 661.5 954.7L661.5 954.7Z" fill="#eb6834"/><path d="M667.3 954.7L667.3 954.7Q667.3 952.4 669.7 952.4L680.6 952.4Q683.0 952.4 683.0 954.7L683.0 954.7Z" fill="#2a78d6"/><path d="M685.0 954.7L685.0 937.1Q685.0 933.1 689.0 933.1L696.6 933.1Q700.6 933.1 700.6 937.1L700.6 954.7Z" fill="#eb6834"/><path d="M706.4 954.7L706.4 954.7Q706.4 951.5 709.6 951.5L718.9 951.5Q722.1 951.5 722.1 954.7L722.1 954.7Z" fill="#2a78d6"/><path d="M724.1 954.7L724.1 910.4Q724.1 906.4 728.1 906.4L735.7 906.4Q739.7 906.4 739.7 910.4L739.7 954.7Z" fill="#eb6834"/><path d="M745.6 954.7L745.6 953.4Q745.6 949.4 749.6 949.4L757.2 949.4Q761.2 949.4 761.2 953.4L761.2 954.7Z" fill="#2a78d6"/><path d="M763.2 954.7L763.2 915.6Q763.2 911.6 767.2 911.6L774.9 911.6Q778.9 911.6 778.9 915.6L778.9 954.7Z" fill="#eb6834"/><path d="M784.7 954.7L784.7 836.9Q784.7 832.9 788.7 832.9L796.3 832.9Q800.3 832.9 800.3 836.9L800.3 954.7Z" fill="#2a78d6"/><path d="M802.3 954.7L802.3 755.1Q802.3 751.1 806.3 751.1L814.0 751.1Q818.0 751.1 818.0 755.1L818.0 954.7Z" fill="#eb6834"/><path d="M823.8 954.7L823.8 833.0Q823.8 829.0 827.8 829.0L835.4 829.0Q839.4 829.0 839.4 833.0L839.4 954.7Z" fill="#2a78d6"/><path d="M841.4 954.7L841.4 740.5Q841.4 736.5 845.4 736.5L853.1 736.5Q857.1 736.5 857.1 740.5L857.1 954.7Z" fill="#eb6834"/><text x="648.653" y="966.7" font-family="ui-monospace, SFMono-Regular, Menlo, Consolas, monospace" font-size="10.5" text-anchor="end" transform="rotate(-90 648.7 966.7)" fill="#52514e">--stream -n first(inputs)</text><text x="687.771" y="966.7" font-family="ui-monospace, SFMono-Regular, Menlo, Consolas, monospace" font-size="10.5" text-anchor="end" transform="rotate(-90 687.8 966.7)" fill="#52514e">paths¹</text><text x="726.888" y="966.7" font-family="ui-monospace, SFMono-Regular, Menlo, Consolas, monospace" font-size="10.5" text-anchor="end" transform="rotate(-90 726.9 966.7)" fill="#52514e">tostream¹</text><text x="766.006" y="966.7" font-family="ui-monospace, SFMono-Regular, Menlo, Consolas, monospace" font-size="10.5" text-anchor="end" transform="rotate(-90 766.0 966.7)" fill="#52514e">fromstream(inputs)¹</text><text x="805.124" y="966.7" font-family="ui-monospace, SFMono-Regular, Menlo, Consolas, monospace" font-size="10.5" text-anchor="end" transform="rotate(-90 805.1 966.7)" fill="#52514e">--stream .</text><text x="844.241" y="966.7" font-family="ui-monospace, SFMono-Regular, Menlo, Consolas, monospace" font-size="10.5" text-anchor="end" transform="rotate(-90 844.2 966.7)" fill="#52514e">--stream select(length==2)</text><text x="20" y="1177.1" font-family="ui-sans-serif, system-ui, -apple-system, Segoe UI, Roboto, sans-serif" font-size="10.5" fill="#7c7d78">¹ measured on a 1.8 MB / 20k-record corpus; everything else on 18 MB / 200k records.</text></svg>
