<svg xmlns="http://www.w3.org/2000/svg" width="880" height="644" viewBox="0 0 880 644" role="img" aria-label="Time to run 4 YAML workloads, zinq against yq (Go) 4.53.3, over 20 MB of block-style YAML, 200k records. zinq is ahead on all 4."><title>Time to run 4 YAML workloads, zinq against yq (Go) 4.53.3, over 20 MB of block-style YAML, 200k records. zinq is ahead on all 4.</title><text x="20" y="20" font-family="ui-sans-serif, system-ui, -apple-system, Segoe UI, Roboto, sans-serif" font-size="10.5" font-weight="600" letter-spacing="1.8" fill="#7c7d78">YAML</text><text x="20" y="44" font-family="ui-sans-serif, system-ui, -apple-system, Segoe UI, Roboto, sans-serif" font-size="15.5" font-weight="600" fill="#0b0b0b">Time to run each YAML workload — shorter columns are faster</text><text x="20" y="64" font-family="ui-sans-serif, system-ui, -apple-system, Segoe UI, Roboto, sans-serif" font-size="11.5" fill="#52514e">4 workloads over 20 MB of block-style YAML, 200k records, best of 5 interleaved rounds on an Apple M3 Max. Each group carries its own axis.</text><rect x="20" y="78" width="10" height="10" rx="2.5" fill="#2a78d6"/><text x="35" y="87" font-family="ui-sans-serif, system-ui, -apple-system, Segoe UI, Roboto, sans-serif" font-size="11.5" fill="#52514e">zinq</text><rect x="82.6" y="78" width="10" height="10" rx="2.5" fill="#eb6834"/><text x="97.6" y="87" font-family="ui-sans-serif, system-ui, -apple-system, Segoe UI, Roboto, sans-serif" font-size="11.5" fill="#52514e">yq (Go) 4.53.3</text><line x1="20" y1="102" x2="860" y2="102" stroke="#e3e3df" stroke-width="1"/><rect x="12.0" y="118" width="205.0" height="491.8" rx="9" fill="#f6f6f4"/><text x="20" y="140" font-family="ui-sans-serif, system-ui, -apple-system, Segoe UI, Roboto, sans-serif" font-size="10.5" font-weight="600" letter-spacing="1" fill="#7c7d78">YAML IN, JSON OUT</text><text x="20" y="168" font-family="ui-sans-serif, system-ui, -apple-system, Segoe UI, Roboto, sans-serif" font-size="9.5" letter-spacing="1" fill="#7c7d78">SECONDS</text><text x="54" y="423.2" font-family="ui-monospace, SFMono-Regular, Menlo, Consolas, monospace" font-size="9.5" text-anchor="end" fill="#7c7d78">0</text><line x1="62.0" y1="368.1" x2="209.0" y2="368.1" stroke="#e6eaeb" stroke-width="1"/><text x="54" y="371.347" font-family="ui-monospace, SFMono-Regular, Menlo, Consolas, monospace" font-size="9.5" text-anchor="end" fill="#7c7d78">10</text><line x1="62.0" y1="316.3" x2="209.0" y2="316.3" stroke="#e6eaeb" stroke-width="1"/><text x="54" y="319.494" font-family="ui-monospace, SFMono-Regular, Menlo, Consolas, monospace" font-size="9.5" text-anchor="end" fill="#7c7d78">20</text><line x1="62.0" y1="264.4" x2="209.0" y2="264.4" stroke="#e6eaeb" stroke-width="1"/><text x="54" y="267.641" font-family="ui-monospace, SFMono-Regular, Menlo, Consolas, monospace" font-size="9.5" text-anchor="end" fill="#7c7d78">30</text><line x1="62.0" y1="212.6" x2="209.0" y2="212.6" stroke="#e6eaeb" stroke-width="1"/><text x="54" y="215.788" font-family="ui-monospace, SFMono-Regular, Menlo, Consolas, monospace" font-size="9.5" text-anchor="end" fill="#7c7d78">40</text><line x1="62.0" y1="420.0" x2="209.0" y2="420.0" stroke="#c8d0d3" stroke-width="1"/><path d="M116.5 420.0L116.5 420.0Q116.5 418.0 118.5 418.0L132.5 418.0Q134.5 418.0 134.5 420.0L134.5 420.0Z" fill="#2a78d6"/><path d="M136.5 420.0L136.5 205.8Q136.5 201.8 140.5 201.8L150.5 201.8Q154.5 201.8 154.5 205.8L154.5 420.0Z" fill="#eb6834"/><text x="134.5" y="411" font-family="ui-monospace, SFMono-Regular, Menlo, Consolas, monospace" font-size="9.5" text-anchor="end" fill="#52514e">0.209 s</text><text x="136.5" y="194.818" font-family="ui-monospace, SFMono-Regular, Menlo, Consolas, monospace" font-size="9.5" text-anchor="start" fill="#52514e">42.077 s</text><text x="139.3" y="432" font-family="ui-monospace, SFMono-Regular, Menlo, Consolas, monospace" font-size="10.5" text-anchor="end" transform="rotate(-90 139.3 432.0)" fill="#52514e">[.[] | .name]</text><rect x="229.0" y="118" width="205.0" height="491.8" rx="9" fill="#f6f6f4"/><text x="237" y="140" font-family="ui-sans-serif, system-ui, -apple-system, Segoe UI, Roboto, sans-serif" font-size="10.5" font-weight="600" letter-spacing="1" fill="#7c7d78">PARSE-BOUND</text><text x="237" y="168" font-family="ui-sans-serif, system-ui, -apple-system, Segoe UI, Roboto, sans-serif" font-size="9.5" letter-spacing="1" fill="#7c7d78">SECONDS</text><text x="271" y="423.2" font-family="ui-monospace, SFMono-Regular, Menlo, Consolas, monospace" font-size="9.5" text-anchor="end" fill="#7c7d78">0</text><line x1="279.0" y1="374.7" x2="426.0" y2="374.7" stroke="#e6eaeb" stroke-width="1"/><text x="271" y="377.859" font-family="ui-monospace, SFMono-Regular, Menlo, Consolas, monospace" font-size="9.5" text-anchor="end" fill="#7c7d78">0.25</text><line x1="279.0" y1="329.3" x2="426.0" y2="329.3" stroke="#e6eaeb" stroke-width="1"/><text x="271" y="332.518" font-family="ui-monospace, SFMono-Regular, Menlo, Consolas, monospace" font-size="9.5" text-anchor="end" fill="#7c7d78">0.5</text><line x1="279.0" y1="284.0" x2="426.0" y2="284.0" stroke="#e6eaeb" stroke-width="1"/><text x="271" y="287.176" font-family="ui-monospace, SFMono-Regular, Menlo, Consolas, monospace" font-size="9.5" text-anchor="end" fill="#7c7d78">0.75</text><line x1="279.0" y1="238.6" x2="426.0" y2="238.6" stroke="#e6eaeb" stroke-width="1"/><text x="271" y="241.835" font-family="ui-monospace, SFMono-Regular, Menlo, Consolas, monospace" font-size="9.5" text-anchor="end" fill="#7c7d78">1</text><line x1="279.0" y1="193.3" x2="426.0" y2="193.3" stroke="#e6eaeb" stroke-width="1"/><text x="271" y="196.494" font-family="ui-monospace, SFMono-Regular, Menlo, Consolas, monospace" font-size="9.5" text-anchor="end" fill="#7c7d78">1.25</text><line x1="279.0" y1="420.0" x2="426.0" y2="420.0" stroke="#c8d0d3" stroke-width="1"/><path d="M333.5 420.0L333.5 389.4Q333.5 385.4 337.5 385.4L347.5 385.4Q351.5 385.4 351.5 389.4L351.5 420.0Z" fill="#2a78d6"/><path d="M353.5 420.0L353.5 205.8Q353.5 201.8 357.5 201.8L367.5 201.8Q371.5 201.8 371.5 205.8L371.5 420.0Z" fill="#eb6834"/><text x="351.5" y="378.359" font-family="ui-monospace, SFMono-Regular, Menlo, Consolas, monospace" font-size="9.5" text-anchor="end" fill="#52514e">0.191 s</text><text x="353.5" y="194.818" font-family="ui-monospace, SFMono-Regular, Menlo, Consolas, monospace" font-size="9.5" text-anchor="start" fill="#52514e">1.203 s</text><text x="356.3" y="432" font-family="ui-monospace, SFMono-Regular, Menlo, Consolas, monospace" font-size="10.5" text-anchor="end" transform="rotate(-90 356.3 432.0)" fill="#52514e">.[0]</text><rect x="446.0" y="118" width="205.0" height="491.8" rx="9" fill="#f6f6f4"/><text x="454" y="140" font-family="ui-sans-serif, system-ui, -apple-system, Segoe UI, Roboto, sans-serif" font-size="10.5" font-weight="600" letter-spacing="1" fill="#7c7d78">EDIT, YAML OUT</text><text x="454" y="168" font-family="ui-sans-serif, system-ui, -apple-system, Segoe UI, Roboto, sans-serif" font-size="9.5" letter-spacing="1" fill="#7c7d78">SECONDS</text><text x="488" y="423.2" font-family="ui-monospace, SFMono-Regular, Menlo, Consolas, monospace" font-size="9.5" text-anchor="end" fill="#7c7d78">0</text><line x1="496.0" y1="374.5" x2="643.0" y2="374.5" stroke="#e6eaeb" stroke-width="1"/><text x="488" y="377.745" font-family="ui-monospace, SFMono-Regular, Menlo, Consolas, monospace" font-size="9.5" text-anchor="end" fill="#7c7d78">0.25</text><line x1="496.0" y1="329.1" x2="643.0" y2="329.1" stroke="#e6eaeb" stroke-width="1"/><text x="488" y="332.291" font-family="ui-monospace, SFMono-Regular, Menlo, Consolas, monospace" font-size="9.5" text-anchor="end" fill="#7c7d78">0.5</text><line x1="496.0" y1="283.6" x2="643.0" y2="283.6" stroke="#e6eaeb" stroke-width="1"/><text x="488" y="286.836" font-family="ui-monospace, SFMono-Regular, Menlo, Consolas, monospace" font-size="9.5" text-anchor="end" fill="#7c7d78">0.75</text><line x1="496.0" y1="238.2" x2="643.0" y2="238.2" stroke="#e6eaeb" stroke-width="1"/><text x="488" y="241.382" font-family="ui-monospace, SFMono-Regular, Menlo, Consolas, monospace" font-size="9.5" text-anchor="end" fill="#7c7d78">1</text><line x1="496.0" y1="192.7" x2="643.0" y2="192.7" stroke="#e6eaeb" stroke-width="1"/><text x="488" y="195.927" font-family="ui-monospace, SFMono-Regular, Menlo, Consolas, monospace" font-size="9.5" text-anchor="end" fill="#7c7d78">1.25</text><line x1="496.0" y1="420.0" x2="643.0" y2="420.0" stroke="#c8d0d3" stroke-width="1"/><path d="M550.5 420.0L550.5 388.2Q550.5 384.2 554.5 384.2L564.5 384.2Q568.5 384.2 568.5 388.2L568.5 420.0Z" fill="#2a78d6"/><path d="M570.5 420.0L570.5 205.8Q570.5 201.8 574.5 201.8L584.5 201.8Q588.5 201.8 588.5 205.8L588.5 420.0Z" fill="#eb6834"/><text x="568.5" y="377.182" font-family="ui-monospace, SFMono-Regular, Menlo, Consolas, monospace" font-size="9.5" text-anchor="end" fill="#52514e">0.197 s</text><text x="570.5" y="194.818" font-family="ui-monospace, SFMono-Regular, Menlo, Consolas, monospace" font-size="9.5" text-anchor="start" fill="#52514e">1.200 s</text><text x="573.3" y="432" font-family="ui-monospace, SFMono-Regular, Menlo, Consolas, monospace" font-size="10.5" text-anchor="end" transform="rotate(-90 573.3 432.0)" fill="#52514e">.[0].name = &quot;zzz&quot; | .[0:3]</text><rect x="663.0" y="118" width="205.0" height="491.8" rx="9" fill="#f6f6f4"/><text x="671" y="140" font-family="ui-sans-serif, system-ui, -apple-system, Segoe UI, Roboto, sans-serif" font-size="10.5" font-weight="600" letter-spacing="1" fill="#7c7d78">YAML IN, YAML OUT</text><text x="671" y="168" font-family="ui-sans-serif, system-ui, -apple-system, Segoe UI, Roboto, sans-serif" font-size="9.5" letter-spacing="1" fill="#7c7d78">SECONDS</text><text x="705" y="423.2" font-family="ui-monospace, SFMono-Regular, Menlo, Consolas, monospace" font-size="9.5" text-anchor="end" fill="#7c7d78">0</text><line x1="713.0" y1="364.4" x2="860.0" y2="364.4" stroke="#e6eaeb" stroke-width="1"/><text x="705" y="367.584" font-family="ui-monospace, SFMono-Regular, Menlo, Consolas, monospace" font-size="9.5" text-anchor="end" fill="#7c7d78">1</text><line x1="713.0" y1="308.8" x2="860.0" y2="308.8" stroke="#e6eaeb" stroke-width="1"/><text x="705" y="311.968" font-family="ui-monospace, SFMono-Regular, Menlo, Consolas, monospace" font-size="9.5" text-anchor="end" fill="#7c7d78">2</text><line x1="713.0" y1="253.2" x2="860.0" y2="253.2" stroke="#e6eaeb" stroke-width="1"/><text x="705" y="256.352" font-family="ui-monospace, SFMono-Regular, Menlo, Consolas, monospace" font-size="9.5" text-anchor="end" fill="#7c7d78">3</text><line x1="713.0" y1="197.5" x2="860.0" y2="197.5" stroke="#e6eaeb" stroke-width="1"/><text x="705" y="200.736" font-family="ui-monospace, SFMono-Regular, Menlo, Consolas, monospace" font-size="9.5" text-anchor="end" fill="#7c7d78">4</text><line x1="713.0" y1="420.0" x2="860.0" y2="420.0" stroke="#c8d0d3" stroke-width="1"/><path d="M767.5 420.0L767.5 404.0Q767.5 400.0 771.5 400.0L781.5 400.0Q785.5 400.0 785.5 404.0L785.5 420.0Z" fill="#2a78d6"/><path d="M787.5 420.0L787.5 205.8Q787.5 201.8 791.5 201.8L801.5 201.8Q805.5 201.8 805.5 205.8L805.5 420.0Z" fill="#eb6834"/><text x="785.5" y="393.034" font-family="ui-monospace, SFMono-Regular, Menlo, Consolas, monospace" font-size="9.5" text-anchor="end" fill="#52514e">0.359 s</text><text x="787.5" y="194.818" font-family="ui-monospace, SFMono-Regular, Menlo, Consolas, monospace" font-size="9.5" text-anchor="start" fill="#52514e">3.923 s</text><text x="790.3" y="432" font-family="ui-monospace, SFMono-Regular, Menlo, Consolas, monospace" font-size="10.5" text-anchor="end" transform="rotate(-90 790.3 432.0)" fill="#52514e">.</text><text x="20" y="629.8" font-family="ui-sans-serif, system-ui, -apple-system, Segoe UI, Roboto, sans-serif" font-size="10.5" fill="#7c7d78">The two YAML-out rows are not byte-compared: two YAML renderers legitimately differ in quoting and indent style.</text></svg>
